<?xml version="1.0" ?><svg id="Layer_1" style="enable-background:new 0 0 70 70;" version="1.1" viewBox="0 0 70 70" xml:space="preserve" xmlns="http://www.w3.org/2000/svg" xmlns:xlink="http://www.w3.org/1999/xlink"><style type="text/css">
	.st0{fill:#D7D2D1;}
	.st1{fill:#5EA3D7;}
</style><g><path class="st1" d="M44.6150513,31.2160492c0.2399902-0.210022,0.4699707-0.4299927,0.7099609-0.6699829   c2.0599976-2.1800537,3.1900024-5.1500244,3.1900024-8.3700562l0.0100098-5.8699951   c0-0.8499756-0.1599731-1.6900024-0.460022-2.4299927c0-0.0100098,0-0.0100098,0-0.0100098v-0.0099487   c-0.0099487-0.0100098-0.0099487-0.0100098-0.0099487-0.0200195c0,0,0,0,0-0.0100098c-0.0100098,0-0.0100098,0-0.0100098-0.0100098   c-0.3400269-0.9099731-0.8900146-1.75-1.6000366-2.4400024c-1.8200073-1.7699585-5.2399902-4.5-9.539978-5.2399902   l1.1900024-1.6099854c0.3300171-0.4500122,0.2299805-1.0800171-0.210022-1.4000244   c-0.4500122-0.3299561-1.0700073-0.2299805-1.3999634,0.210022l-1.3699951,1.8699951l-1.7900391-2.6699829   c-0.3099976-0.460022-0.9299927-0.5800172-1.3900146-0.2700195c-0.4499512,0.3099976-0.5799561,0.9299927-0.2699585,1.3900146   l1.5999756,2.3900146c-2.8599854,0.3299561-5.9699707,1.6799927-9.1799927,4.7299805   c-0.8699951,0.8099976-1.5299683,1.8200073-1.960022,2.9500122c-0.0199585,0.0499878-0.039978,0.0999756-0.0599976,0.1499634   c-0.3200073,0.8400269-0.4799805,1.75-0.4799805,2.7000122l-0.0100098,6.2999878   c-0.0100098,3.2600098,1.3099976,6.2399902,3.6300049,8.2000122c0.0900269,0.0700073,0.1799927,0.1400146,0.2800293,0.210022   c-0.9500122,0.8200073-2.4500122,2.1799927-4.0700073,3.8699951c6.7999878,0.2099609,11.1099854,2.8999634,13.5799561,5.25   c2.3600464-2.25,6.7700195-5.1199951,13.9100342-5.2600098C47.2250366,33.4360199,45.6050415,32.0360565,44.6150513,31.2160492z    M42.4450073,30.4060516c-1.3499756,0.9599609-2.8699951,1.4799805-4.4299927,1.7199707   c-1.4899902,0.2200317-3.0200195,0.1799927-4.4799805-0.0100098c-1.3599854-0.1900024-2.6600342-0.5-3.8099976-0.8499756   c-0.6300049-0.1900024-1.2300415-0.4500122-1.7999878-0.7600098c-0.1000366-0.0499878-0.2000122-0.0899658-0.2900391-0.1499634   c-0.3999634-0.2400513-0.789978-0.5200195-1.1499634-0.8099976c-1.8600464-1.5700073-2.9200439-4-2.9100342-6.6700439   l0.0100098-6.2999878c0-0.3099976,0.0200195-0.6199951,0.0700073-0.9199829   c0.1400146,0.0599976,0.289978,0.1300049,0.4500122,0.1900024c0.0100098,0,0.0199585,0.0100098,0.0299683,0.0100098   c0.25,0.0899658,0.5200195,0.1799927,0.7999878,0.2699585c0.0100098,0,0.0100098,0,0.0100098,0   c0.2900391,0.0900269,0.6100464,0.1700439,0.9500122,0.2399902c0.0100098,0,0.0200195,0,0.0200195,0   c1.3200073,0.2700195,2.9500122,0.3600464,4.7999878-0.0299683c0.0100098,0,0.0299683-0.0100098,0.039978-0.0100098   c0.2600098-0.0499878,0.5300293-0.1199951,0.7900391-0.2000122c0.0499878-0.0100098,0.0899658-0.0199585,0.1300049-0.0299683   c0.2399902-0.0700073,0.4899902-0.1500244,0.7299805-0.2399902c0.0800171-0.0300293,0.1500244-0.0500488,0.2199707-0.0800171   c0.2300415-0.0800171,0.460022-0.1799927,0.6900024-0.2800293c0.1000366-0.039978,0.1900024-0.0799561,0.2800293-0.1199951   c0.2799683-0.1199951,0.5499878-0.2699585,0.8300171-0.4199829c0.0599976-0.0200195,0.1099854-0.0499878,0.1599731-0.0800171   c0.3400269-0.1799927,0.6799927-0.3800049,1.0200195-0.5999756c0.1399536-0.0900269,0.2799683-0.1600342,0.4199829-0.2399902   c0.2000122-0.1199951,0.4000244-0.2399902,0.5900269-0.3400269c0.1499634-0.0800171,0.2999878-0.1400146,0.4599609-0.2000122   c0.1699829-0.0799561,0.3500366-0.1699829,0.5300293-0.2399902c0.1499634-0.0599976,0.2999878-0.0999756,0.4500122-0.1499634   c0.1699829-0.0500488,0.3399658-0.1100464,0.5-0.1600342c0.1499634-0.039978,0.2999878-0.0599976,0.4499512-0.0899658   c0.1500244-0.0400391,0.3099976-0.0700073,0.4700317-0.1000366c0.1400146-0.0199585,0.2799683-0.0299683,0.4299927-0.039978   c0.1500244-0.0200195,0.2999878-0.0300293,0.4400024-0.0400391h0.4099731c0.1400146,0,0.2800293,0,0.4200439,0.0100098   c0.1300049,0.0100098,0.2599487,0.0200195,0.3800049,0.0400391c0.1399536,0.0100098,0.2799683,0.0299683,0.4099731,0.0499878   c0.1199951,0.0200195,0.2299805,0.039978,0.3499756,0.0700073c0.1300049,0.0199585,0.2600098,0.0499878,0.3900146,0.0799561   c0.1000366,0.0300293,0.210022,0.0600586,0.3099976,0.0900269c0.1300049,0.039978,0.25,0.0800171,0.3699951,0.1199951   c0.1000366,0.039978,0.1900024,0.0700073,0.2700195,0.1000366c0.1300049,0.0499878,0.25,0.0999756,0.3800049,0.1599731   c0.0700073,0.0299683,0.1400146,0.0599976,0.2099609,0.0900269C44.375,13.5460663,44.5050049,13.6160126,44.625,13.6760101   c0.0500488,0.0300293,0.0900269,0.0500488,0.1400146,0.0800171c0.1400146,0.0800171,0.2800293,0.1600342,0.4100342,0.2399902   c0.0199585,0.0100098,0.0299683,0.0200195,0.0499878,0.0300293c0.4699707,0.289978,0.8200073,0.5700073,1.0499878,0.7700195   c0.1599731,0.4699707,0.25,0.9899902,0.25,1.5099487l-0.0100098,5.8699951c0,2.6700439-0.9599609,5.2200317-2.6400146,6.9900513   C43.4150391,29.6360321,42.9450073,30.0460663,42.4450073,30.4060516z"/><path class="st1" d="M39.6550293,27.8660126c-1.5900269,1.2300415-3.0999756,1.6700439-4.4100342,1.6700439   c-1.9399414,0-3.4599609-0.9800415-4.2099609-1.7999878c-0.3699951-0.4100342-0.3400269-1.0400391,0.0700073-1.4100342   c0.4099731-0.3699951,1.039978-0.3399658,1.4099731,0.0599976c0.25,0.2700195,2.5200195,2.5100098,5.9199829-0.0999756   c0.4400024-0.3400269,1.0599976-0.2600098,1.4000244,0.1799927S40.0950317,27.5360565,39.6550293,27.8660126z"/><path class="st1" d="M42.6050415,20.1260223c0,0.5499878-0.4500122,0.9899902-1,0.9899902h-1.5c-0.5499878,0-1-0.4499512-1-1   c0-0.5499878,0.4500122-1,1-1h1.5C42.1550293,19.1160126,42.6050415,19.5660248,42.6050415,20.1260223z"/><path class="st1" d="M31.9650269,20.1060638c0,0.5499878-0.4500122,0.9899902-1,0.9899902h-1.5c-0.5499878,0-1-0.4500122-1-1   c0.0100098-0.5499878,0.4500122-1,1-1h1.5C31.5250244,19.1060638,31.9650269,19.5460663,31.9650269,20.1060638z"/><path class="st0" d="M20.0450439,37.1360321c-0.2900391,0.0100098-0.5599976,0.1300049-0.7399902,0.3500366   c-0.0900269,0.1099854-0.1800537,0.2199707-0.2700195,0.3199463l13.5700073,3.1700439   C30.0950317,38.976059,26.0650024,37.016037,20.0450439,37.1360321z"/><path class="st0" d="M51.2650146,37.726059c-0.0800171-0.0900269-0.1599731-0.1799927-0.2399902-0.2700195   c-0.1699829-0.1699829-0.4000244-0.2800293-0.6400146-0.3099976c-0.1400146-0.0100098-0.289978-0.0200195-0.4099731-0.0100098   c-6.1799927-0.1199951-10.2200317,1.9299927-12.6300049,3.8699951L51.2650146,37.726059z"/><path class="st0" d="M15.0650024,39.3160248c-0.2399902,0.1900024-0.3800049,0.4700317-0.3800049,0.7800293v22.7999878   c0,0.4699707,0.3300171,0.8800049,0.7900391,0.9799805l18.5299683,4.0300293V43.3560638l-18.0899658-4.2300415   C15.6150513,39.056015,15.3050537,39.1260223,15.0650024,39.3160248z"/><path class="st0" d="M54.9349976,39.3160248c-0.2399902-0.1900024-0.5499878-0.2600098-0.8499756-0.1900024l-18.0800171,4.25   v24.5300293l18.5200195-4.0300293c0.460022-0.0999756,0.789978-0.5100098,0.789978-0.9799805V40.0960541   C55.3150024,39.7860565,55.1750488,39.5060272,54.9349976,39.3160248z M50.2150269,56.1960297l-9.9400024,2.7399902   c-0.0900269,0.0300293-0.1799927,0.0400391-0.2700195,0.0400391c-0.4400024,0-0.8399658-0.2900391-0.9599609-0.7399902   c-0.1500244-0.5300293,0.1599731-1.0800171,0.6900024-1.2300415l9.9499512-2.7399902   c0.5300293-0.1500244,1.0800171,0.1599731,1.2300415,0.7000122C51.0650024,55.4960175,50.7449951,56.0460663,50.2150269,56.1960297   z M50.2150269,51.8160248l-9.9400024,2.75c-0.0900269,0.0200195-0.1799927,0.0300293-0.2700195,0.0300293   c-0.4400024,0-0.8399658-0.2900391-0.9599609-0.7300415c-0.1500244-0.5299683,0.1599731-1.0799561,0.6900024-1.2299805   l9.9499512-2.75c0.5300293-0.1499634,1.0800171,0.1699829,1.2300415,0.7000122   C51.0650024,51.1160126,50.7449951,51.6660614,50.2150269,51.8160248z M50.2150269,47.4460297l-9.9400024,2.7399902   c-0.0900269,0.0300293-0.1799927,0.0400391-0.2700195,0.0400391c-0.4400024,0-0.8399658-0.2900391-0.9599609-0.7399902   c-0.1500244-0.5300293,0.1599731-1.0800171,0.6900024-1.2300415l9.9499512-2.7399902   c0.5300293-0.1500244,1.0800171,0.1599731,1.2300415,0.7000122C51.0650024,46.7460175,50.7449951,47.2960663,50.2150269,47.4460297   z"/></g></svg>